<?xml version="1.0" standalone="no"?>
<!DOCTYPE svg PUBLIC "-//W3C//DTD SVG 20010904//EN"
 "http://www.w3.org/TR/2001/REC-SVG-20010904/DTD/svg10.dtd">
<svg version="1.0" xmlns="http://www.w3.org/2000/svg"
 width="33.000000pt" height="33.000000pt" viewBox="0 0 33.000000 33.000000"
 preserveAspectRatio="xMidYMid meet">

<g transform="translate(0.000000,33.000000) scale(0.100000,-0.100000)"
fill="#000000" stroke="none">
<path d="M222 257 c-63 -64 -64 -64 -112 -59 -42 4 -52 1 -74 -21 -49 -49 -42
-123 15 -152 44 -23 77 -18 111 15 28 28 30 36 26 80 -4 40 -1 53 13 66 18 16
20 16 37 1 25 -23 34 -22 67 13 26 28 27 30 12 53 -9 14 -13 34 -10 46 10 38
-20 23 -85 -42z m62 -16 c8 -12 -21 -34 -34 -26 -8 5 -8 11 1 21 13 16 25 18
33 5z m-139 -91 c38 -42 9 -110 -47 -110 -35 0 -68 32 -68 65 0 56 77 86 115
45z"/>
</g>
</svg>
