<?xml version="1.0" standalone="no"?>
<!DOCTYPE svg PUBLIC "-//W3C//DTD SVG 20010904//EN"
 "http://www.w3.org/TR/2001/REC-SVG-20010904/DTD/svg10.dtd">
<svg version="1.0" xmlns="http://www.w3.org/2000/svg"
 width="451.000000pt" height="451.000000pt" viewBox="0 0 451.000000 451.000000"
 preserveAspectRatio="xMidYMid meet">
<metadata>
Created by potrace 1.14, written by Peter Selinger 2001-2017
</metadata>
<g transform="translate(0.000000,451.000000) scale(0.100000,-0.100000)"
fill="#000000" stroke="none">
<path d="M1690 4094 c-193 -29 -354 -96 -505 -210 -232 -174 -418 -478 -479
-784 -3 -14 -7 -35 -10 -47 -10 -45 -19 -161 -20 -245 l-1 -86 -68 -36 c-292
-152 -501 -444 -583 -816 -22 -100 -26 -358 -8 -476 76 -481 406 -865 817
-951 75 -15 194 -17 1442 -17 748 0 1387 3 1420 7 337 37 630 300 753 677 12
36 24 79 27 95 2 17 10 57 16 89 13 71 17 234 8 296 -4 25 -10 65 -13 90 -3
25 -15 77 -25 115 -91 329 -322 590 -607 686 -35 12 -64 27 -64 33 0 6 5 28
11 50 19 69 20 80 24 191 11 332 -149 627 -409 755 -93 46 -159 61 -266 62
-99 1 -186 -23 -288 -77 -79 -42 -102 -48 -102 -23 0 17 -109 180 -164 243
-148 172 -357 306 -556 355 -80 20 -282 34 -350 24z"/>
</g>
</svg>
