<?xml version="1.0" standalone="no"?>
<!DOCTYPE svg PUBLIC "-//W3C//DTD SVG 20010904//EN"
 "http://www.w3.org/TR/2001/REC-SVG-20010904/DTD/svg10.dtd">
<svg version="1.0" xmlns="http://www.w3.org/2000/svg"
 width="451.000000pt" height="451.000000pt" viewBox="0 0 451.000000 451.000000"
 preserveAspectRatio="xMidYMid meet">
<metadata>
Created by potrace 1.14, written by Peter Selinger 2001-2017
</metadata>
<g transform="translate(0.000000,451.000000) scale(0.100000,-0.100000)"
fill="#000000" stroke="none">
<path d="M2501 3125 c-17 -15 -39 -50 -51 -83 -51 -136 -215 -773 -295 -1144
-50 -235 -116 -521 -120 -526 -1 -2 -94 20 -206 49 -233 58 -281 60 -374 14
-60 -29 -103 -75 -137 -145 -29 -58 -31 -172 -5 -247 22 -62 91 -143 144 -169
56 -26 411 -113 463 -114 93 0 165 59 228 185 65 132 116 313 226 815 64 289
106 475 127 555 l11 40 21 -40 c30 -59 153 -177 217 -208 109 -53 245 -53 373
-2 67 28 92 47 113 87 18 35 18 62 -2 104 -32 68 -104 81 -199 38 -46 -22 -67
-26 -116 -22 -69 5 -114 36 -165 111 -45 65 -54 135 -54 403 0 250 -7 285 -60
311 -43 22 -105 16 -139 -12z"/>
</g>
</svg>
