<?xml version="1.0" standalone="no"?>
<!DOCTYPE svg PUBLIC "-//W3C//DTD SVG 20010904//EN"
 "http://www.w3.org/TR/2001/REC-SVG-20010904/DTD/svg10.dtd">
<svg version="1.0" xmlns="http://www.w3.org/2000/svg"
 width="512.000000pt" height="512.000000pt" viewBox="0 0 512.000000 512.000000"
 preserveAspectRatio="xMidYMid meet">
<metadata>
Created by potrace 1.14, written by Peter Selinger 2001-2017
</metadata>
<g transform="translate(0.000000,512.000000) scale(0.100000,-0.100000)"
fill="#000000" stroke="none">
<path d="M4080 4849 c-41 -3 -88 -11 -104 -18 -53 -22 -105 -71 -132 -128 -27
-55 -28 -58 -28 -259 -1 -112 -5 -204 -9 -204 -5 0 -18 5 -29 11 -32 17 -112
12 -156 -10 -105 -53 -145 -176 -93 -280 77 -149 291 -147 366 4 25 50 25 51
25 362 l1 311 29 40 c45 63 81 72 284 72 145 0 177 3 190 16 19 19 20 44 3 68
-11 15 -31 18 -142 19 -72 1 -164 -1 -205 -4z"/>
<path d="M4616 4173 c-56 -17 -128 -81 -157 -141 -22 -44 -23 -61 -25 -247 -2
-110 -3 -203 -3 -207 -1 -4 -18 -1 -38 6 -132 45 -265 -52 -267 -194 -3 -222
299 -288 389 -86 22 50 23 60 23 352 -1 295 0 303 22 342 12 22 39 49 61 61
35 20 53 22 221 23 150 0 186 3 201 16 21 18 22 42 3 68 -13 18 -28 19 -200
19 -121 0 -202 -4 -230 -12z"/>
<path d="M505 3319 c-44 -3 -98 -12 -120 -19 -151 -48 -276 -185 -314 -342 -8
-35 -10 -363 -9 -1190 l3 -1143 22 -54 c64 -157 197 -268 355 -297 65 -11
3070 -6 3123 6 181 41 328 201 352 383 4 29 7 547 6 1152 0 1205 3 1159 -59
1269 -39 70 -121 149 -192 185 -62 31 -72 34 -152 46 -57 8 -2906 12 -3015 4z"/>
</g>
</svg>
